<svg xmlns="http://www.w3.org/2000/svg" viewBox="0 0 161.76 86.5"><g id="레이어_2"><g id="레이어_1-2"><polygon points="161.76 5.78 87.46 5.78 87.46 80.08 161.76 80.08 123.6 42.93 161.76 5.78 161.76 5.78" fill="#ffd100"/><path d="M41.29,0C37.53-.06,21.17.2,9.58,13.48a40.4,40.4,0,0,0-9.3,31c2.18,18,16.9,31.22,32.43,38.71,2.75,1.33,6.09,3.38,9.16,3.33a11.31,11.31,0,0,0,3.69-.88C63.09,79.08,79.8,64.61,81.62,45c1.13-12.27-3.2-25-12.17-33.61A42.17,42.17,0,0,0,41.29,0Zm-.23,57.73A16.92,16.92,0,1,1,58,40.83,16.92,16.92,0,0,1,41.06,57.74Z" fill="#ffd100"/></g></g></svg>